<mxfile host="app.diagrams.net" modified="2022-11-22T02:53:30.758Z" agent="5.0 (Windows)" etag="4BMNmNkG3gRyHOs6WwGq" version="20.5.3" type="github">
  <diagram id="RJdUK5HELNv8gSF1hzPO" name="Page-1">
    <mxGraphModel dx="2062" dy="1180" grid="1" gridSize="10" guides="1" tooltips="1" connect="1" arrows="1" fold="1" page="1" pageScale="1" pageWidth="850" pageHeight="1100" math="0" shadow="0">
      <root>
        <mxCell id="0" />
        <mxCell id="1" parent="0" />
        <mxCell id="dO-jZ2Cui3sGxpul0toG-1" value="Test" style="rounded=0;whiteSpace=wrap;html=1;" vertex="1" parent="1">
          <mxGeometry x="330" y="360" width="200" height="130" as="geometry" />
        </mxCell>
      </root>
    </mxGraphModel>
  </diagram>
</mxfile>
